<svg width="120" height="120" viewBox="0 0 120 120" fill="none" xmlns="http://www.w3.org/2000/svg" role="img" aria-label="Otto the octopus">
  <!-- eight arms fanning out: one per parallel slice -->
  <g stroke="#7c5cff" stroke-width="6" stroke-linecap="round" fill="none">
    <path d="M48 72 C40 88, 26 92, 18 104" />
    <path d="M52 76 C46 94, 36 104, 30 114" />
    <path d="M58 78 C56 96, 52 108, 50 118" />
    <path d="M62 78 C64 96, 68 108, 70 118" />
    <path d="M68 76 C74 94, 84 104, 90 114" />
    <path d="M72 72 C80 88, 94 92, 102 104" />
    <path d="M44 66 C30 74, 18 74, 8 80" />
    <path d="M76 66 C90 74, 102 74, 112 80" />
  </g>
  <!-- head -->
  <path d="M60 18 C82 18, 94 36, 94 56 C94 70, 84 78, 60 78 C36 78, 26 70, 26 56 C26 36, 38 18, 60 18 Z" fill="#7c5cff"/>
  <!-- eyes -->
  <circle cx="50" cy="50" r="7" fill="#fff"/>
  <circle cx="70" cy="50" r="7" fill="#fff"/>
  <circle cx="51" cy="51" r="3.2" fill="#1a1430"/>
  <circle cx="71" cy="51" r="3.2" fill="#1a1430"/>
</svg>
